<svg width="92" height="62" viewBox="0 0 92 62" fill="none" xmlns="http://www.w3.org/2000/svg">
<path d="M0.461599 57.7316C-0.244352 58.5812 -0.127955 59.8421 0.721579 60.5481C1.57111 61.254 2.83208 61.1376 3.53803 60.2881L1.99982 59.0099L0.461599 57.7316ZM91.1626 13.1216C91.7768 12.2036 91.5305 10.9614 90.6125 10.3472L75.6521 0.337856C74.7341 -0.276371 73.4919 -0.0300794 72.8777 0.887967C72.2635 1.80601 72.5098 3.04816 73.4278 3.66238L86.7259 12.5596L77.8287 25.8577C77.2145 26.7757 77.4608 28.0179 78.3788 28.6321C79.2968 29.2463 80.539 29 81.1532 28.082L91.1626 13.1216ZM1.99982 59.0099C3.53803 60.2881 3.53764 60.2886 3.53736 60.2889C3.53742 60.2888 3.53725 60.289 3.53736 60.2889C3.53759 60.2886 3.53826 60.2878 3.53938 60.2865C3.54162 60.2838 3.54565 60.279 3.55148 60.2721C3.56313 60.2582 3.58195 60.236 3.60792 60.2055C3.65988 60.1446 3.74048 60.0509 3.84969 59.9262C4.06812 59.6769 4.40096 59.3037 4.84796 58.8211C5.742 57.8559 7.09237 56.4534 8.89699 54.7294C12.5067 51.281 17.9307 46.549 25.1524 41.4568C39.5959 31.2723 61.2152 19.6568 89.8893 13.9713L89.5003 12.0095L89.1113 10.0477C59.785 15.8625 37.654 27.7472 22.8473 38.1878C15.444 43.4081 9.86799 48.2699 6.13392 51.8371C4.26665 53.621 2.8592 55.0818 1.9134 56.1029C1.44047 56.6135 1.08288 57.0142 0.840858 57.2905C0.719844 57.4287 0.627715 57.5357 0.564498 57.6098C0.532889 57.6469 0.508508 57.6757 0.491357 57.6961C0.482782 57.7063 0.476014 57.7144 0.471054 57.7203C0.468574 57.7233 0.466546 57.7257 0.46497 57.7276C0.464182 57.7285 0.463339 57.7295 0.462945 57.73C0.462215 57.7309 0.461599 57.7316 1.99982 59.0099Z" fill="#FFC7F7"/>
</svg>
