<svg width="45" height="46" viewBox="0 0 45 46" fill="none" xmlns="http://www.w3.org/2000/svg">
<path d="M29.1973 2.5C31.8274 2.51648 34.3461 3.569 36.2061 5.42871C38.0657 7.2883 39.1178 9.80568 39.1348 12.4355C39.1436 13.8111 38.8657 15.1585 38.3389 16.4014C39.348 16.4356 40.3088 16.8495 41.0264 17.5645C41.3534 17.8897 41.6219 18.2689 41.8193 18.6846L41.8994 18.8652L41.9707 19.0488C42.1262 19.4819 42.206 19.9392 42.2061 20.4004C42.2061 20.9275 42.1018 21.4498 41.8994 21.9365C41.6986 22.4195 41.4039 22.8576 41.0342 23.2275L24.6973 39.6328L24.6934 39.6357C22.2554 42.0737 18.9488 43.4432 15.501 43.4434C12.053 43.4434 8.74569 42.0738 6.30762 39.6357C3.86971 37.1977 2.50002 33.8912 2.5 30.4434C2.5 26.9972 3.86796 23.6916 6.30371 21.2539L22.1279 5.36621L22.1533 5.34082C24.0363 3.50467 26.5673 2.48365 29.1973 2.5ZM29.1846 10.459C29.1013 10.4587 29.0184 10.4647 28.9365 10.4746C29.3743 10.65 29.7814 10.9014 30.1357 11.2227L30.2773 11.3584L30.4131 11.5C30.7338 11.8538 30.9848 12.2603 31.1602 12.6973C31.17 12.6157 31.1771 12.5332 31.1768 12.4502C31.1745 11.9226 30.9639 11.417 30.5908 11.0439C30.2178 10.671 29.7121 10.4611 29.1846 10.459Z" fill="#FFC7F7" stroke="white" stroke-width="5"/>
<path d="M29.1885 4C31.4241 4.01404 33.5646 4.90854 35.1455 6.48926C36.7263 8.06993 37.6204 10.2099 37.6348 12.4453C37.6491 14.6809 36.7823 16.8327 35.2217 18.4336L35.2139 18.4414L35.2129 18.4404L19.3926 34.3301L19.374 34.3486C18.3306 35.3443 16.9432 35.8994 15.501 35.8994C14.0589 35.8993 12.6722 35.3441 11.6289 34.3486L11.6123 34.332C11.1016 33.8214 10.6964 33.215 10.4199 32.5479C10.1435 31.8805 10.001 31.1647 10.001 30.4424C10.001 29.7201 10.1435 29.0052 10.4199 28.3379C10.6964 27.6705 11.1015 27.0635 11.6123 26.5527L25.6982 12.4023L25.7119 12.3887C26.1834 11.9333 26.8153 11.6809 27.4707 11.6865C28.1262 11.6922 28.7533 11.9555 29.2168 12.4189C29.6803 12.8825 29.9435 13.5096 29.9492 14.165C29.9549 14.8205 29.7025 15.4523 29.2471 15.9238L29.2363 15.9346L15.1484 30.0869L15.1475 30.0879C15.0538 30.1816 15.0011 30.309 15.001 30.4414C15.001 30.5709 15.0519 30.695 15.1416 30.7881C15.2397 30.8777 15.3678 30.9287 15.501 30.9287C15.6382 30.9286 15.77 30.8752 15.8691 30.7803L31.6758 14.9082C32.3204 14.2505 32.6805 13.3654 32.6768 12.4443C32.6729 11.5211 32.3042 10.6362 31.6514 9.9834C30.9985 9.33064 30.1137 8.96269 29.1904 8.95898C28.2672 8.95533 27.3798 9.31637 26.7217 9.96387L10.9053 25.8447L10.9033 25.8467C9.68455 27.0658 8.99988 28.7195 9 30.4434C9.00022 32.1672 9.68534 33.8202 10.9043 35.0391C12.1235 36.258 13.777 36.9435 15.501 36.9434C16.3545 36.9433 17.1997 36.7749 17.9883 36.4482C18.7763 36.1218 19.4924 35.643 20.0957 35.04L36.4336 18.6318L36.4355 18.6299C36.9044 18.1613 37.5403 17.8984 38.2031 17.8984C38.8651 17.8985 39.5001 18.1605 39.9688 18.6279L40.1348 18.8105C40.2913 19.0005 40.4188 19.2133 40.5137 19.4414C40.64 19.7454 40.706 20.0712 40.7061 20.4004C40.7061 20.7298 40.6401 21.0562 40.5137 21.3604C40.3878 21.6632 40.2028 21.9373 39.9707 22.1689L39.9717 22.1699L23.6338 38.5742L23.6328 38.5752C21.4761 40.7319 18.5509 41.9432 15.501 41.9434C12.4508 41.9434 9.52493 40.732 7.36816 38.5752C5.21156 36.4185 4.00002 33.4934 4 30.4434C4 27.3934 5.21158 24.4683 7.36816 22.3115L23.1904 6.4248L23.2012 6.41406C24.8018 4.85341 26.953 3.98599 29.1885 4Z" fill="#FFC7F7" stroke="#DF9EC5" stroke-width="2"/>
</svg>
