<svg width="45" height="45" viewBox="0 0 45 45" fill="none" xmlns="http://www.w3.org/2000/svg">
<mask id="path-1-outside-1_82_967" maskUnits="userSpaceOnUse" x="0" y="0" width="45" height="45" fill="black">
<rect fill="white" width="45" height="45"/>
<path d="M22.5 40C32.165 40 40 32.165 40 22.5C40 12.835 32.165 5 22.5 5C12.835 5 5 12.835 5 22.5C5 32.165 12.835 40 22.5 40Z"/>
<path d="M15.5 26C15.5 26 18.125 29.5 22.5 29.5C26.875 29.5 29.5 26 29.5 26"/>
</mask>
<path d="M22.5 40C32.165 40 40 32.165 40 22.5C40 12.835 32.165 5 22.5 5C12.835 5 5 12.835 5 22.5C5 32.165 12.835 40 22.5 40Z" fill="#FFE4B6"/>
<path d="M15.5 26C15.5 26 18.125 29.5 22.5 29.5C26.875 29.5 29.5 26 29.5 26" fill="#FFE4B6"/>
<path d="M17.25 14.75C15.8693 14.75 14.75 15.8693 14.75 17.25C14.75 18.6307 15.8693 19.75 17.25 19.75V17.25V14.75ZM17.2675 19.75C18.6482 19.75 19.7675 18.6307 19.7675 17.25C19.7675 15.8693 18.6482 14.75 17.2675 14.75V17.25V19.75ZM27.75 14.75C26.3693 14.75 25.25 15.8693 25.25 17.25C25.25 18.6307 26.3693 19.75 27.75 19.75V17.25V14.75ZM27.7675 19.75C29.1482 19.75 30.2675 18.6307 30.2675 17.25C30.2675 15.8693 29.1482 14.75 27.7675 14.75V17.25V19.75ZM17.25 17.25V19.75H17.2675V17.25V14.75H17.25V17.25ZM27.75 17.25V19.75H27.7675V17.25V14.75H27.75V17.25ZM19.5 23C17.8431 20.7909 14.7091 20.3431 12.5 22C10.2909 23.6569 9.84315 26.7909 11.5 29L15.5 26L19.5 23ZM33.5 29C35.1569 26.7909 34.7091 23.6569 32.5 22C30.2909 20.3431 27.1569 20.7909 25.5 23L29.5 26L33.5 29ZM40 22.5H35C35 29.4036 29.4036 35 22.5 35V40V45C34.9264 45 45 34.9264 45 22.5H40ZM22.5 40V35C15.5964 35 10 29.4036 10 22.5H5H0C0 34.9264 10.0736 45 22.5 45V40ZM5 22.5H10C10 15.5964 15.5964 10 22.5 10V5V0C10.0736 0 0 10.0736 0 22.5H5ZM22.5 5V10C29.4036 10 35 15.5964 35 22.5H40H45C45 10.0736 34.9264 0 22.5 0V5ZM15.5 26C11.5 29 11.5012 29.0016 11.5024 29.0032C11.5028 29.0037 11.504 29.0053 11.5048 29.0064C11.5065 29.0086 11.5082 29.0109 11.5099 29.0132C11.5134 29.0178 11.5171 29.0227 11.521 29.0278C11.5287 29.0379 11.5371 29.049 11.5463 29.0609C11.5647 29.0848 11.586 29.1122 11.6103 29.1428C11.6588 29.2041 11.7193 29.2787 11.7915 29.3647C11.9355 29.5364 12.1283 29.7557 12.3686 30.0064C12.845 30.5035 13.5312 31.1484 14.4185 31.7937C16.1738 33.0703 18.9348 34.5 22.5 34.5V29.5V24.5C21.6902 24.5 20.9512 24.1797 20.3002 23.7063C19.9844 23.4766 19.741 23.2465 19.5885 23.0873C19.5143 23.0099 19.4678 22.9558 19.4512 22.936C19.4431 22.9263 19.4428 22.9258 19.4508 22.9358C19.4548 22.9408 19.4608 22.9486 19.469 22.9592C19.4731 22.9645 19.4777 22.9705 19.4829 22.9773C19.4855 22.9807 19.4882 22.9843 19.491 22.9881C19.4925 22.99 19.4939 22.9919 19.4954 22.9939C19.4962 22.9949 19.4973 22.9964 19.4977 22.9969C19.4988 22.9984 19.5 23 15.5 26ZM22.5 29.5V34.5C26.0652 34.5 28.8262 33.0703 30.5815 31.7937C31.4688 31.1484 32.155 30.5035 32.6314 30.0064C32.8717 29.7557 33.0645 29.5364 33.2085 29.3647C33.2807 29.2787 33.3412 29.2041 33.3897 29.1428C33.414 29.1122 33.4353 29.0848 33.4537 29.0609C33.4629 29.049 33.4713 29.0379 33.479 29.0278C33.4829 29.0227 33.4866 29.0178 33.4901 29.0132C33.4918 29.0109 33.4935 29.0086 33.4952 29.0064C33.496 29.0053 33.4972 29.0037 33.4976 29.0032C33.4988 29.0016 33.5 29 29.5 26C25.5 23 25.5012 22.9984 25.5023 22.9969C25.5027 22.9964 25.5038 22.9949 25.5046 22.9939C25.5061 22.9919 25.5075 22.99 25.509 22.9881C25.5118 22.9843 25.5145 22.9807 25.5171 22.9773C25.5223 22.9705 25.5269 22.9645 25.531 22.9592C25.5392 22.9486 25.5452 22.9408 25.5492 22.9358C25.5572 22.9258 25.5569 22.9263 25.5488 22.936C25.5322 22.9558 25.4857 23.0099 25.4115 23.0873C25.259 23.2465 25.0156 23.4766 24.6998 23.7063C24.0488 24.1797 23.3098 24.5 22.5 24.5V29.5Z" fill="white" mask="url(#path-1-outside-1_82_967)"/>
<path d="M22.5 40C32.165 40 40 32.165 40 22.5C40 12.835 32.165 5 22.5 5C12.835 5 5 12.835 5 22.5C5 32.165 12.835 40 22.5 40Z" fill="#FFE4B6"/>
<path d="M15.5 26C15.5 26 18.125 29.5 22.5 29.5C26.875 29.5 29.5 26 29.5 26" fill="#FFE4B6"/>
<path d="M15.5 26C15.5 26 18.125 29.5 22.5 29.5C26.875 29.5 29.5 26 29.5 26M17.25 17.25H17.2675M27.75 17.25H27.7675M40 22.5C40 32.165 32.165 40 22.5 40C12.835 40 5 32.165 5 22.5C5 12.835 12.835 5 22.5 5C32.165 5 40 12.835 40 22.5Z" stroke="#E0B78F" stroke-width="3" stroke-linecap="round" stroke-linejoin="round"/>
</svg>
