<svg width="282" height="95" viewBox="0 0 282 95" fill="none" xmlns="http://www.w3.org/2000/svg">
<path d="M130.839 71.3132L123.225 17.8562L4.30778 37.5723C7.45322 61.8304 11.9138 79.0581 25.4334 89.834C27.4933 91.4759 30.2164 91.9432 32.7969 91.4141L130.839 71.3132Z" fill="black" fill-opacity="0.2"/>
<path d="M246.151 58.0654L240.253 4.49927L0.396051 30.7967C1.20565 54.8157 6.66369 71.3406 34.5597 80.4334C35.8413 80.8512 37.2106 80.9732 38.5503 80.8264L246.151 58.0654Z" fill="#D4EEFC"/>
<path d="M42.0922 43.6694L50.0867 42.8156C50.5004 42.7714 50.8569 42.8701 51.1562 43.1117C51.4698 43.3356 51.6486 43.6544 51.6928 44.0681C51.7353 44.4658 51.6269 44.8073 51.3677 45.0924C51.1228 45.3599 50.7934 45.5158 50.3798 45.56L43.6978 46.2736L43.8693 45.8449L44.3662 50.4985L44.1549 50.328L49.7392 49.7316C50.1528 49.6874 50.5093 49.7861 50.8087 50.0277C51.1222 50.2516 51.3011 50.5705 51.3453 50.9841C51.3877 51.3818 51.2794 51.7233 51.0202 52.0084C50.7752 52.2759 50.4459 52.4318 50.0323 52.476L44.5196 53.0647L44.6186 52.861L45.1334 57.6816L44.9195 57.4872L51.5777 56.7762C51.9913 56.732 52.3487 56.8387 52.6497 57.0961C52.965 57.336 53.1421 57.6389 53.1812 58.0048C53.2237 58.4026 53.1153 58.744 52.8561 59.0291C52.6129 59.3126 52.2844 59.4764 51.8708 59.5206L43.8762 60.3744C43.4626 60.4185 43.0981 60.3207 42.7829 60.0808C42.4818 59.8233 42.3092 59.4878 42.265 59.0741L40.7919 45.2805C40.7477 44.8669 40.8464 44.5104 41.088 44.2111C41.3438 43.8941 41.6785 43.7135 42.0922 43.6694ZM61.2747 45.3619C62.4521 45.2361 63.3693 45.3876 64.0266 45.8162C64.6997 46.2431 65.1918 46.8584 65.5029 47.6619C65.8282 48.4478 66.0444 49.3419 66.1514 50.3442L66.8039 56.4534C66.848 56.8671 66.7502 57.2315 66.5103 57.5468C66.2687 57.8461 65.9411 58.0179 65.5275 58.0621C65.1138 58.1062 64.7573 58.0075 64.458 57.766C64.1569 57.5085 63.9843 57.1729 63.9401 56.7593L63.2877 50.65C63.2316 50.125 63.1099 49.6633 62.9225 49.2649C62.7494 48.849 62.4742 48.5324 62.097 48.3152C61.7198 48.0981 61.2051 48.0243 60.5528 48.094C59.9164 48.1619 59.3891 48.347 58.9708 48.6491C58.5684 48.9495 58.2709 49.3273 58.0781 49.7823C57.8995 50.2198 57.8383 50.701 57.8944 51.226L58.5468 57.3353C58.591 57.7489 58.4931 58.1134 58.2533 58.4286C58.0117 58.728 57.6841 58.8997 57.2704 58.9439C56.8568 58.9881 56.5003 58.8894 56.2009 58.6478C55.8999 58.3903 55.7273 58.0547 55.6831 57.6411L54.6305 47.7851C54.5863 47.3715 54.685 47.015 54.9266 46.7156C55.1665 46.4004 55.4933 46.2207 55.9069 46.1765C56.3206 46.1323 56.6779 46.239 56.9789 46.4965C57.2783 46.738 57.4501 47.0657 57.4942 47.4793L57.6038 48.5055L57.2382 48.4721C57.3525 48.1864 57.5288 47.8779 57.7669 47.5467C58.0034 47.1996 58.2902 46.8713 58.6272 46.5618C58.9642 46.2523 59.3549 45.9933 59.7993 45.7849C60.242 45.5607 60.7338 45.4196 61.2747 45.3619ZM68.8598 45.0345L74.5156 44.4305C74.8974 44.3897 75.2292 44.483 75.5109 44.7104C75.7927 44.9378 75.9539 45.2423 75.9947 45.6242C76.0338 45.9901 75.9396 46.3139 75.7123 46.5957C75.4832 46.8615 75.1778 47.0148 74.7959 47.0556L69.1401 47.6596C68.7583 47.7004 68.4265 47.6071 68.1448 47.3797C67.863 47.1524 67.7018 46.8478 67.661 46.4659C67.6219 46.1 67.7169 45.7841 67.946 45.5183C68.1733 45.2366 68.4779 45.0753 68.8598 45.0345ZM71.0946 41.7788C71.5083 41.7346 71.8577 41.8421 72.1428 42.1013C72.4422 42.3429 72.6139 42.6705 72.6581 43.0841L73.7923 53.7038C73.816 53.9265 73.8754 54.1052 73.9702 54.2399C74.0809 54.3729 74.2113 54.4635 74.3613 54.5119C74.5272 54.5585 74.6976 54.5725 74.8726 54.5538C75.0636 54.5334 75.2352 54.4829 75.3875 54.4023C75.5381 54.3058 75.7168 54.2464 75.9236 54.2244C76.1463 54.2006 76.3562 54.2827 76.5533 54.4709C76.7663 54.6573 76.8924 54.9335 76.9315 55.2994C76.979 55.7449 76.7715 56.1371 76.3089 56.4762C75.8622 56.8135 75.3604 57.0119 74.8036 57.0714C74.4695 57.1071 74.0931 57.1231 73.6743 57.1196C73.2698 57.0984 72.8735 57.004 72.4855 56.8362C72.1117 56.6509 71.7817 56.3482 71.4955 55.9282C71.2093 55.5083 71.0245 54.9085 70.9413 54.1289L69.7944 43.39C69.7502 42.9763 69.8489 42.6198 70.0905 42.3205C70.3463 42.0035 70.681 41.823 71.0946 41.7788ZM85.7422 56.1446C84.3898 56.289 83.1828 56.1363 82.121 55.6865C81.0735 55.2191 80.2274 54.529 79.5828 53.6163C78.9542 52.7019 78.5744 51.6322 78.4436 50.4072C78.2907 48.9753 78.4471 47.7276 78.9128 46.6642C79.3927 45.5831 80.0731 44.722 80.954 44.0808C81.8349 43.4396 82.8003 43.063 83.8504 42.9508C84.6618 42.8642 85.4433 42.9497 86.1949 43.2073C86.9624 43.4633 87.656 43.8558 88.2757 44.385C88.8937 44.8983 89.4026 45.5198 89.8023 46.2494C90.218 46.9774 90.4717 47.771 90.5634 48.6301C90.5883 49.0136 90.4703 49.34 90.2094 49.6092C89.9485 49.8784 89.6272 50.0334 89.2453 50.0742L80.1292 51.0478L79.1584 48.7378L87.9166 47.8025L87.4425 48.3358L87.3737 47.6915C87.2926 47.2335 87.0814 46.8377 86.74 46.5041C86.4146 46.1687 86.0181 45.9214 85.5505 45.7622C85.0972 45.5853 84.6239 45.5232 84.1307 45.5759C83.6534 45.6269 83.2148 45.7381 82.8147 45.9096C82.4147 46.081 82.0796 46.334 81.8096 46.6686C81.5396 47.0031 81.3443 47.4343 81.2237 47.9621C81.103 48.4899 81.0844 49.1436 81.1676 49.9232C81.2594 50.7823 81.5125 51.4954 81.9271 52.0626C82.3559 52.6122 82.8657 53.0163 83.4565 53.275C84.0615 53.5162 84.6822 53.6027 85.3186 53.5348C85.9073 53.4719 86.3715 53.3741 86.7113 53.2412C87.0511 53.1084 87.3177 52.9673 87.5109 52.8179C87.7183 52.6509 87.9045 52.5104 88.0693 52.3962C88.3403 52.2225 88.6032 52.122 88.8577 52.0948C89.2077 52.0574 89.5068 52.1462 89.7551 52.361C90.0192 52.5742 90.1682 52.8398 90.2022 53.158C90.2481 53.5876 90.067 54.0012 89.6589 54.3987C89.2826 54.7929 88.7351 55.1652 88.0162 55.5155C87.2956 55.8499 86.5376 56.0596 85.7422 56.1446ZM95.2109 54.8919C94.7973 54.9361 94.4408 54.8374 94.1414 54.5958C93.8404 54.3384 93.6678 54.0028 93.6236 53.5891L92.571 43.7332C92.5268 43.3195 92.6255 42.963 92.8671 42.6637C93.107 42.3484 93.4338 42.1687 93.8474 42.1245C94.261 42.0804 94.6184 42.187 94.9194 42.4445C95.2188 42.6861 95.3905 43.0137 95.4347 43.4273L95.6743 45.6706L95.3365 44.0895C95.4707 43.689 95.6578 43.3311 95.8976 43.0159C96.1517 42.683 96.4436 42.4024 96.7732 42.1741C97.1011 41.9299 97.4589 41.7389 97.8464 41.6009C98.2339 41.463 98.6266 41.3728 99.0243 41.3303C99.5016 41.2793 99.9138 41.3721 100.261 41.6086C100.624 41.8433 100.825 42.1437 100.864 42.5096C100.92 43.0346 100.826 43.4309 100.581 43.6984C100.334 43.95 100.052 44.0928 99.7333 44.1268C99.431 44.1591 99.1467 44.1332 98.8802 44.049C98.6297 43.9631 98.3453 43.9371 98.0271 43.9711C97.7408 44.0017 97.4541 44.1047 97.1671 44.2802C96.8943 44.4381 96.6459 44.6738 96.422 44.9873C96.2139 45.2992 96.0533 45.6784 95.94 46.1249C95.841 46.5539 95.8221 47.0547 95.8833 47.6275L96.4873 53.2833C96.5315 53.697 96.4336 54.0614 96.1938 54.3767C95.9522 54.676 95.6246 54.8478 95.2109 54.8919ZM109.62 40.6814L115.276 40.0774C115.658 40.0366 115.99 40.1299 116.271 40.3573C116.553 40.5846 116.714 40.8892 116.755 41.2711C116.794 41.637 116.7 41.9608 116.473 42.2426C116.244 42.5084 115.938 42.6617 115.556 42.7025L109.9 43.3065C109.519 43.3473 109.187 43.254 108.905 43.0266C108.623 42.7992 108.462 42.4946 108.421 42.1128C108.382 41.7469 108.477 41.431 108.706 41.1652C108.934 40.8835 109.238 40.7222 109.62 40.6814ZM111.855 37.4257C112.269 37.3815 112.618 37.489 112.903 37.7482C113.203 37.9898 113.374 38.3174 113.419 38.731L114.553 49.3506C114.576 49.5734 114.636 49.7521 114.731 49.8868C114.841 50.0198 114.972 50.1104 115.122 50.1588C115.288 50.2054 115.458 50.2194 115.633 50.2007C115.824 50.1803 115.996 50.1298 116.148 50.0492C116.298 49.9527 116.477 49.8933 116.684 49.8713C116.907 49.8475 117.117 49.9296 117.314 50.1178C117.527 50.3042 117.653 50.5804 117.692 50.9463C117.739 51.3918 117.532 51.784 117.069 52.1231C116.623 52.4604 116.121 52.6588 115.564 52.7183C115.23 52.754 114.853 52.77 114.435 52.7665C114.03 52.7453 113.634 52.6509 113.246 52.4831C112.872 52.2978 112.542 51.9951 112.256 51.5751C111.97 51.1551 111.785 50.5554 111.702 49.7758L110.555 39.0369C110.511 38.6232 110.609 38.2667 110.851 37.9674C111.107 37.6504 111.441 37.4699 111.855 37.4257ZM125.897 38.4604C127.042 38.3381 127.936 38.4921 128.577 38.9224C129.234 39.351 129.718 39.9671 130.029 40.7706C130.339 41.5582 130.547 42.4531 130.654 43.4554L131.306 49.5647C131.351 49.9784 131.253 50.3428 131.013 50.6581C130.771 50.9574 130.444 51.1292 130.03 51.1733C129.616 51.2175 129.26 51.1188 128.961 50.8772C128.66 50.6198 128.487 50.2842 128.443 49.8705L127.79 43.7613C127.734 43.2363 127.62 42.7737 127.449 42.3737C127.276 41.9577 127.009 41.6403 126.647 41.4214C126.286 41.2026 125.795 41.1263 125.175 41.1925C124.57 41.2571 124.067 41.4396 123.664 41.74C123.262 42.0404 122.972 42.4173 122.795 42.8707C122.633 43.3064 122.58 43.7868 122.636 44.3118L123.288 50.4211C123.332 50.8347 123.234 51.1992 122.994 51.5144C122.753 51.8138 122.425 51.9855 122.012 52.0297C121.598 52.0739 121.241 51.9752 120.942 51.7336C120.641 51.4761 120.468 51.1405 120.424 50.7269L118.849 35.9788C118.805 35.5651 118.904 35.2086 119.145 34.9093C119.385 34.594 119.712 34.4143 120.126 34.3701C120.539 34.3259 120.897 34.4326 121.198 34.6901C121.497 34.9317 121.669 35.2593 121.713 35.6729L122.345 41.5913L121.979 41.5579C122.094 41.2721 122.262 40.9645 122.484 40.6351C122.705 40.2897 122.984 39.9622 123.321 39.6527C123.658 39.3432 124.04 39.085 124.469 38.8784C124.896 38.6558 125.372 38.5165 125.897 38.4604ZM140.602 50.2856C139.25 50.4301 138.043 50.2774 136.981 49.8276C135.933 49.3602 135.087 48.6701 134.443 47.7574C133.814 46.843 133.434 45.7733 133.304 44.5483C133.151 43.1164 133.307 41.8687 133.773 40.8053C134.253 39.7242 134.933 38.8631 135.814 38.2219C136.695 37.5807 137.66 37.2041 138.71 37.0919C139.522 37.0053 140.303 37.0908 141.055 37.3484C141.822 37.6044 142.516 37.9969 143.136 38.5261C143.754 39.0394 144.262 39.6609 144.662 40.3905C145.078 41.1185 145.332 41.9121 145.423 42.7712C145.448 43.1547 145.33 43.4811 145.069 43.7503C144.808 44.0195 144.487 44.1745 144.105 44.2153L134.989 45.1889L134.018 42.8789L142.776 41.9436L142.302 42.4769L142.234 41.8326C142.153 41.3746 141.941 40.9788 141.6 40.6452C141.274 40.3098 140.878 40.0625 140.41 39.9033C139.957 39.7264 139.484 39.6643 138.991 39.717C138.513 39.768 138.075 39.8792 137.675 40.0506C137.275 40.2221 136.94 40.4751 136.67 40.8097C136.4 41.1442 136.204 41.5754 136.084 42.1032C135.963 42.631 135.944 43.2847 136.028 44.0643C136.119 44.9234 136.372 45.6365 136.787 46.2037C137.216 46.7533 137.726 47.1574 138.316 47.4161C138.921 47.6573 139.542 47.7438 140.179 47.6759C140.767 47.613 141.231 47.5151 141.571 47.3823C141.911 47.2495 142.178 47.1084 142.371 46.959C142.578 46.792 142.764 46.6515 142.929 46.5373C143.2 46.3636 143.463 46.2631 143.718 46.2359C144.068 46.1985 144.367 46.2873 144.615 46.5021C144.879 46.7153 145.028 46.9809 145.062 47.2991C145.108 47.7287 144.927 48.1423 144.519 48.5398C144.143 48.934 143.595 49.3063 142.876 49.6566C142.156 49.991 141.398 50.2007 140.602 50.2856ZM156.759 48.3187C156.346 48.3629 155.989 48.2642 155.69 48.0226C155.389 47.7651 155.216 47.4296 155.172 47.0159L154.119 37.16C154.075 36.7463 154.174 36.3898 154.416 36.0905C154.655 35.7752 154.982 35.5955 155.396 35.5513C155.809 35.5071 156.167 35.6138 156.468 35.8713C156.767 36.1129 156.939 36.4405 156.983 36.8541L157.223 39.0974L156.885 37.5163C157.019 37.1158 157.206 36.7579 157.446 36.4426C157.7 36.1098 157.992 35.8292 158.322 35.6009C158.65 35.3567 159.007 35.1656 159.395 35.0277C159.782 34.8898 160.175 34.7996 160.573 34.7571C161.05 34.7061 161.462 34.7989 161.809 35.0353C162.172 35.2701 162.373 35.5705 162.412 35.9364C162.468 36.4614 162.374 36.8577 162.129 37.1252C161.882 37.3768 161.6 37.5196 161.282 37.5536C160.979 37.5859 160.695 37.5599 160.429 37.4758C160.178 37.3899 159.894 37.3639 159.576 37.3979C159.289 37.4285 159.003 37.5315 158.716 37.707C158.443 37.8648 158.194 38.1006 157.97 38.4141C157.762 38.726 157.602 39.1052 157.488 39.5517C157.389 39.9807 157.371 40.4815 157.432 41.0542L158.036 46.7101C158.08 47.1237 157.982 47.4882 157.742 47.8034C157.501 48.1028 157.173 48.2745 156.759 48.3187ZM176.844 39.7293C176.983 41.0339 176.812 42.2187 176.331 43.2839C175.863 44.3315 175.166 45.1863 174.239 45.8485C173.328 46.509 172.268 46.9038 171.059 47.0329C169.85 47.1621 168.722 47.0009 167.676 46.5494C166.646 46.0962 165.784 45.4079 165.09 44.4843C164.411 43.5432 164.001 42.4203 163.862 41.1158C163.722 39.8112 163.887 38.6351 164.354 37.5875C164.836 36.5224 165.532 35.6596 166.443 34.9991C167.368 34.321 168.435 33.9174 169.644 33.7883C170.853 33.6591 171.974 33.8291 173.006 34.2982C174.051 34.7497 174.914 35.446 175.594 36.3871C176.288 37.3107 176.705 38.4247 176.844 39.7293ZM173.98 40.0351C173.894 39.2237 173.652 38.5416 173.255 37.9886C172.872 37.418 172.384 36.9954 171.792 36.7208C171.215 36.4444 170.593 36.342 169.925 36.4133C169.257 36.4847 168.662 36.7172 168.141 37.1107C167.635 37.5026 167.248 38.0186 166.979 38.6589C166.723 39.2815 166.639 39.9985 166.726 40.8099C166.81 41.6054 167.044 42.2884 167.427 42.859C167.824 43.412 168.311 43.8266 168.887 44.103C169.48 44.3776 170.11 44.4792 170.779 44.4079C171.447 44.3365 172.033 44.1049 172.539 43.713C173.06 43.3194 173.448 42.8113 173.703 42.1887C173.973 41.5485 174.065 40.8306 173.98 40.0351ZM191.736 38.1389C191.875 39.4435 191.704 40.6283 191.222 41.6935C190.755 42.7411 190.058 43.5959 189.131 44.2581C188.22 44.9186 187.16 45.3134 185.951 45.4425C184.742 45.5716 183.614 45.4105 182.568 44.959C181.538 44.5058 180.676 43.8174 179.982 42.8939C179.303 41.9528 178.893 40.8299 178.754 39.5253C178.614 38.2208 178.778 37.0447 179.246 35.9971C179.727 34.932 180.424 34.0691 181.335 33.4087C182.26 32.7306 183.327 32.327 184.536 32.1978C185.745 32.0687 186.866 32.2387 187.897 32.7078C188.943 33.1593 189.806 33.8556 190.486 34.7967C191.18 35.7202 191.597 36.8343 191.736 38.1389ZM188.872 38.4447C188.785 37.6333 188.544 36.9511 188.147 36.3982C187.764 35.8276 187.276 35.405 186.684 35.1304C186.107 34.854 185.485 34.7515 184.817 34.8229C184.148 34.8943 183.554 35.1267 183.033 35.5203C182.527 35.9122 182.14 36.4282 181.87 37.0685C181.615 37.6911 181.531 38.4081 181.617 39.2195C181.702 40.015 181.936 40.698 182.319 41.2686C182.716 41.8216 183.203 42.2362 183.779 42.5125C184.372 42.7872 185.002 42.8888 185.67 42.8174C186.339 42.7461 186.925 42.5145 187.431 42.1226C187.952 41.729 188.34 41.2209 188.595 40.5983C188.865 39.9581 188.957 39.2402 188.872 38.4447ZM200.24 30.5208C201.512 30.3848 202.484 30.5948 203.155 31.1507C203.824 31.6907 204.306 32.4358 204.6 33.3859L204.172 33.2144L204.322 32.8122C204.474 32.4259 204.726 32.0047 205.08 31.5485C205.432 31.0765 205.871 30.6676 206.397 30.3217C206.938 29.9583 207.558 29.7392 208.258 29.6644C209.403 29.5421 210.297 29.6961 210.938 30.1264C211.595 30.555 212.08 31.1711 212.391 31.9746C212.7 32.7622 212.908 33.6572 213.015 34.6595L213.668 40.7687C213.712 41.1824 213.614 41.5468 213.374 41.8621C213.133 42.1614 212.805 42.3332 212.391 42.3774C211.978 42.4215 211.621 42.3228 211.322 42.0813C211.021 41.8238 210.848 41.4882 210.804 41.0746L210.152 34.9653C210.095 34.4403 209.982 33.9778 209.81 33.5777C209.637 33.1617 209.37 32.8443 209.009 32.6254C208.647 32.4066 208.156 32.3303 207.536 32.3965C206.931 32.4611 206.428 32.6436 206.026 32.944C205.623 33.2445 205.334 33.6213 205.157 34.0747C204.994 34.5104 204.941 34.9908 204.997 35.5158L205.649 41.6251C205.693 42.0387 205.596 42.4032 205.356 42.7184C205.114 43.0178 204.787 43.1895 204.373 43.2337C203.959 43.2779 203.603 43.1792 203.303 42.9376C203.002 42.6801 202.83 42.3446 202.786 41.9309L202.133 35.8216C202.077 35.2966 201.963 34.8341 201.792 34.434C201.619 34.0181 201.351 33.7007 200.99 33.4818C200.629 33.2629 200.138 33.1866 199.518 33.2529C198.913 33.3174 198.41 33.4999 198.007 33.8004C197.605 34.1008 197.315 34.4777 197.138 34.931C196.976 35.3668 196.922 35.8471 196.978 36.3722L197.631 42.4814C197.675 42.8951 197.577 43.2595 197.337 43.5748C197.096 43.8741 196.768 44.0459 196.355 44.0901C195.941 44.1342 195.584 44.0355 195.285 43.794C194.984 43.5365 194.811 43.2009 194.767 42.7873L193.715 32.9313C193.67 32.5177 193.769 32.1612 194.011 31.8618C194.251 31.5466 194.577 31.3668 194.991 31.3227C195.405 31.2785 195.762 31.3851 196.063 31.6426C196.362 31.8842 196.534 32.2118 196.578 32.6255L196.688 33.6516L196.322 33.6183C196.437 33.3325 196.605 33.0249 196.827 32.6954C197.048 32.3501 197.327 32.0226 197.664 31.7131C198.001 31.4035 198.383 31.1454 198.812 30.9387C199.239 30.7162 199.714 30.5768 200.24 30.5208ZM218.185 41.7345C217.723 41.7838 217.353 41.7027 217.073 41.4912C216.807 41.2622 216.649 40.9169 216.6 40.4556L216.557 40.0499C216.507 39.5885 216.589 39.2257 216.803 38.9616C217.03 38.6799 217.374 38.5144 217.836 38.4651L218.146 38.432C218.607 38.3827 218.971 38.4726 219.237 38.7016C219.517 38.9131 219.681 39.2495 219.731 39.7109L219.774 40.1166C219.823 40.578 219.734 40.9495 219.507 41.2313C219.294 41.4954 218.956 41.6521 218.495 41.7014L218.185 41.7345ZM224.128 41.0998C223.666 41.1491 223.295 41.068 223.015 40.8565C222.75 40.6275 222.592 40.2823 222.543 39.8209L222.499 39.4152C222.45 38.9538 222.532 38.5911 222.745 38.3269C222.973 38.0452 223.317 37.8797 223.778 37.8304L224.089 37.7973C224.55 37.748 224.914 37.8379 225.179 38.067C225.459 38.2784 225.624 38.6148 225.673 39.0762L225.717 39.4819C225.766 39.9433 225.677 40.3148 225.45 40.5966C225.236 40.8607 224.899 41.0174 224.438 41.0667L224.128 41.0998ZM230.07 40.4652C229.609 40.5144 229.238 40.4333 228.958 40.2219C228.692 39.9928 228.535 39.6476 228.486 39.1862L228.442 38.7805C228.393 38.3191 228.475 37.9564 228.688 37.6923C228.915 37.4105 229.26 37.245 229.721 37.1957L230.031 37.1626C230.493 37.1133 230.856 37.2032 231.122 37.4323C231.402 37.6438 231.567 37.9802 231.616 38.4415L231.66 38.8472C231.709 39.3086 231.62 39.6802 231.392 39.9619C231.179 40.226 230.842 40.3827 230.381 40.432L230.07 40.4652Z" fill="#585F91"/>
<path d="M281.957 53.5662L276.059 0L240.052 3.94767L245.95 57.5138L281.957 53.5662Z" fill="#B1D5F6"/>
</svg>
