<svg width="153" height="49" viewBox="0 0 153 49" fill="none" xmlns="http://www.w3.org/2000/svg">
<path d="M2.19361 48.1769L0 8.23706L26.9594 6.75638L29.153 46.6962L2.19361 48.1769Z" fill="#FFDA9E"/>
<path d="M60.9023 45.1566L59.9839 5.08838H149.836C150.463 22.7421 149.363 35.6739 141.357 45.1397C139.661 47.1449 137.042 48.0328 134.417 47.9337L60.9023 45.1566Z" fill="black" fill-opacity="0.2"/>
<path d="M29.1531 46.6962L26.9595 6.75635L149.774 0.0110026C151.61 17.0891 150.608 29.5236 138.773 39.087C137.324 40.2583 135.505 40.855 133.644 40.9572L29.1531 46.6962Z" fill="#FFE4B6"/>
<path d="M49.816 30.008C49.656 29.784 49.584 29.496 49.6 29.144C49.616 28.792 49.824 28.488 50.224 28.232C50.48 28.072 50.752 28.008 51.04 28.04C51.328 28.056 51.608 28.2 51.88 28.472C52.344 28.936 52.832 29.296 53.344 29.552C53.856 29.808 54.496 29.936 55.264 29.936C55.504 29.92 55.768 29.888 56.056 29.84C56.344 29.776 56.592 29.648 56.8 29.456C57.024 29.248 57.136 28.936 57.136 28.52C57.136 28.168 57.016 27.888 56.776 27.68C56.536 27.472 56.216 27.296 55.816 27.152C55.432 27.008 55 26.872 54.52 26.744C54.024 26.6 53.512 26.44 52.984 26.264C52.472 26.088 52 25.864 51.568 25.592C51.136 25.304 50.784 24.928 50.512 24.464C50.24 24 50.104 23.416 50.104 22.712C50.104 21.912 50.328 21.232 50.776 20.672C51.224 20.112 51.8 19.68 52.504 19.376C53.224 19.072 53.976 18.92 54.76 18.92C55.256 18.92 55.776 18.984 56.32 19.112C56.864 19.224 57.384 19.416 57.88 19.688C58.376 19.944 58.792 20.288 59.128 20.72C59.304 20.96 59.408 21.248 59.44 21.584C59.472 21.92 59.32 22.224 58.984 22.496C58.744 22.688 58.464 22.776 58.144 22.76C57.824 22.728 57.56 22.616 57.352 22.424C57.08 22.072 56.712 21.792 56.248 21.584C55.8 21.376 55.28 21.272 54.688 21.272C54.448 21.272 54.184 21.304 53.896 21.368C53.624 21.416 53.384 21.536 53.176 21.728C52.968 21.904 52.864 22.192 52.864 22.592C52.864 22.96 52.984 23.256 53.224 23.48C53.464 23.688 53.784 23.864 54.184 24.008C54.6 24.136 55.04 24.264 55.504 24.392C55.984 24.52 56.472 24.672 56.968 24.848C57.464 25.024 57.92 25.256 58.336 25.544C58.752 25.832 59.088 26.208 59.344 26.672C59.6 27.12 59.728 27.696 59.728 28.4C59.728 29.216 59.488 29.912 59.008 30.488C58.528 31.064 57.928 31.504 57.208 31.808C56.488 32.096 55.752 32.24 55 32.24C54.056 32.24 53.112 32.08 52.168 31.76C51.224 31.424 50.44 30.84 49.816 30.008ZM68.1861 32.24C66.8261 32.24 65.6421 31.96 64.6341 31.4C63.6421 30.824 62.8741 30.048 62.3301 29.072C61.8021 28.096 61.5381 26.992 61.5381 25.76C61.5381 24.32 61.8261 23.096 62.4021 22.088C62.9941 21.064 63.7621 20.28 64.7061 19.736C65.6501 19.192 66.6501 18.92 67.7061 18.92C68.5221 18.92 69.2901 19.088 70.0101 19.424C70.7461 19.76 71.3941 20.224 71.9541 20.816C72.5141 21.392 72.9541 22.064 73.2741 22.832C73.6101 23.6 73.7781 24.416 73.7781 25.28C73.7621 25.664 73.6101 25.976 73.3221 26.216C73.0341 26.456 72.6981 26.576 72.3141 26.576H63.1461L62.4261 24.176H71.2341L70.7061 24.656V24.008C70.6741 23.544 70.5061 23.128 70.2021 22.76C69.9141 22.392 69.5461 22.104 69.0981 21.896C68.6661 21.672 68.2021 21.56 67.7061 21.56C67.2261 21.56 66.7781 21.624 66.3621 21.752C65.9461 21.88 65.5861 22.096 65.2821 22.4C64.9781 22.704 64.7381 23.112 64.5621 23.624C64.3861 24.136 64.2981 24.784 64.2981 25.568C64.2981 26.432 64.4741 27.168 64.8261 27.776C65.1941 28.368 65.6581 28.824 66.2181 29.144C66.7941 29.448 67.4021 29.6 68.0421 29.6C68.6341 29.6 69.1061 29.552 69.4581 29.456C69.8101 29.36 70.0901 29.248 70.2981 29.12C70.5221 28.976 70.7221 28.856 70.8981 28.76C71.1861 28.616 71.4581 28.544 71.7141 28.544C72.0661 28.544 72.3541 28.664 72.5781 28.904C72.8181 29.144 72.9381 29.424 72.9381 29.744C72.9381 30.176 72.7141 30.568 72.2661 30.92C71.8501 31.272 71.2661 31.584 70.5141 31.856C69.7621 32.112 68.9861 32.24 68.1861 32.24ZM83.1584 18.92C84.3424 18.92 85.2384 19.168 85.8464 19.664C86.4704 20.16 86.8944 20.824 87.1184 21.656C87.3584 22.472 87.4784 23.384 87.4784 24.392V30.536C87.4784 30.952 87.3424 31.304 87.0704 31.592C86.7984 31.864 86.4544 32 86.0384 32C85.6224 32 85.2784 31.864 85.0064 31.592C84.7344 31.304 84.5984 30.952 84.5984 30.536V24.392C84.5984 23.864 84.5264 23.392 84.3824 22.976C84.2544 22.544 84.0144 22.2 83.6624 21.944C83.3104 21.688 82.8064 21.56 82.1504 21.56C81.5104 21.56 80.9664 21.688 80.5184 21.944C80.0864 22.2 79.7504 22.544 79.5104 22.976C79.2864 23.392 79.1744 23.864 79.1744 24.392V30.536C79.1744 30.952 79.0384 31.304 78.7664 31.592C78.4944 31.864 78.1504 32 77.7344 32C77.3184 32 76.9744 31.864 76.7024 31.592C76.4304 31.304 76.2944 30.952 76.2944 30.536V20.624C76.2944 20.208 76.4304 19.864 76.7024 19.592C76.9744 19.304 77.3184 19.16 77.7344 19.16C78.1504 19.16 78.4944 19.304 78.7664 19.592C79.0384 19.864 79.1744 20.208 79.1744 20.624V21.656L78.8144 21.584C78.9584 21.312 79.1664 21.024 79.4384 20.72C79.7104 20.4 80.0304 20.104 80.3984 19.832C80.7664 19.56 81.1824 19.344 81.6464 19.184C82.1104 19.008 82.6144 18.92 83.1584 18.92ZM101.103 14.24C101.519 14.24 101.863 14.376 102.135 14.648C102.407 14.92 102.543 15.272 102.543 15.704V30.536C102.543 30.952 102.407 31.304 102.135 31.592C101.863 31.864 101.519 32 101.103 32C100.687 32 100.343 31.864 100.071 31.592C99.7993 31.304 99.6633 30.952 99.6633 30.536V29.36L100.191 29.576C100.191 29.784 100.079 30.04 99.8553 30.344C99.6313 30.632 99.3273 30.92 98.9433 31.208C98.5593 31.496 98.1033 31.744 97.5753 31.952C97.0633 32.144 96.5033 32.24 95.8953 32.24C94.7913 32.24 93.7913 31.96 92.8953 31.4C91.9993 30.824 91.2873 30.04 90.7593 29.048C90.2473 28.04 89.9913 26.888 89.9913 25.592C89.9913 24.28 90.2473 23.128 90.7593 22.136C91.2873 21.128 91.9913 20.344 92.8713 19.784C93.7513 19.208 94.7273 18.92 95.7993 18.92C96.4873 18.92 97.1193 19.024 97.6953 19.232C98.2713 19.44 98.7673 19.704 99.1833 20.024C99.6153 20.344 99.9433 20.672 100.167 21.008C100.407 21.328 100.527 21.6 100.527 21.824L99.6633 22.136V15.704C99.6633 15.288 99.7993 14.944 100.071 14.672C100.343 14.384 100.687 14.24 101.103 14.24ZM96.2553 29.6C96.9593 29.6 97.5753 29.424 98.1033 29.072C98.6313 28.72 99.0393 28.24 99.3273 27.632C99.6313 27.024 99.7833 26.344 99.7833 25.592C99.7833 24.824 99.6313 24.136 99.3273 23.528C99.0393 22.92 98.6313 22.44 98.1033 22.088C97.5753 21.736 96.9593 21.56 96.2553 21.56C95.5673 21.56 94.9593 21.736 94.4313 22.088C93.9033 22.44 93.4873 22.92 93.1833 23.528C92.8953 24.136 92.7513 24.824 92.7513 25.592C92.7513 26.344 92.8953 27.024 93.1833 27.632C93.4873 28.24 93.9033 28.72 94.4313 29.072C94.9593 29.424 95.5673 29.6 96.2553 29.6Z" fill="#826FC3"/>
</svg>
